<svg height="512pt" viewBox="0 -31 512.00112 512" width="512pt" xmlns="http://www.w3.org/2000/svg"><path d="m470.417969 360.449219h-64.417969c-11.515625 0-22.03125-4.347657-30-11.480469-7.96875 7.132812-18.488281 11.480469-30 11.480469h-60c-11.566406 0-22.019531-4.507813-30-11.703125-7.980469 7.195312-18.433594 11.703125-30 11.703125h-60c-11.515625 0-22.03125-4.347657-30-11.480469-7.96875 7.132812-18.488281 11.480469-30 11.480469h-64.417969l-39.605469 67.5625c-2.648437 4.640625-2.636718 10.339843.046876 14.96875 2.691406 4.628906 7.628906 7.472656 12.976562 7.472656h482c5.347656 0 10.285156-2.84375 12.980469-7.472656 2.679687-4.628907 2.695312-10.328125.042969-14.96875zm0 0"/><path d="m337.679688 267.933594-6.679688-4.453125v66.972656h15c8.277344 0 15-6.726563 15-15 0-8.292969 6.707031-15 15-15 8.289062 0 15 6.707031 15 15 0 8.273437 6.722656 15 15 15h47.273438l-184.25-323.441406c-5.332032-9.347657-20.714844-9.347657-26.046876 0l-184.25 323.4375h47.273438c8.277344 0 15-6.722657 15-15 0-8.289063 6.707031-15 15-15 8.289062 0 15 6.710937 15 15 0 8.277343 6.722656 15 15 15h15v-66.972657l-6.679688 4.453126c-6.914062 4.558593-16.214843 2.726562-20.800781-4.160157-4.601562-6.898437-2.738281-16.199219 4.160157-20.800781l90-60c5.039062-3.367188 11.601562-3.367188 16.640624 0l90 60c6.898438 4.601562 8.757813 13.902344 4.160157 20.800781-4.519531 6.796875-13.785157 8.8125-20.800781 4.164063zm0 0"/><path d="m211 243.480469v86.972656h15c8.277344 0 15-6.726563 15-15 0-8.292969 6.707031-15 15-15 8.289062 0 15 6.707031 15 15 0 8.273437 6.722656 15 15 15h15v-86.972656l-45-29.996094zm0 0"/></svg>