<svg height="511pt" viewBox="1 -30 511.99919 511" width="511pt" xmlns="http://www.w3.org/2000/svg"><path d="m269.011719 8.035156c-2.675781-4.660156-7.640625-7.535156-13.011719-7.535156-5.375 0-10.335938 2.875-13.011719 7.535156l-241 420c-2.664062 4.640625-2.652343 10.351563.03125 14.980469 2.683594 4.632813 7.628907 7.484375 12.980469 7.484375h482c5.351562 0 10.296875-2.851562 12.980469-7.484375 2.679687-4.628906 2.691406-10.339844.03125-14.980469zm-13.011719 37.601563 163.457031 284.863281h-13.457031c-8.269531 0-15-6.730469-15-15 0-8.285156-6.714844-15-15-15s-15 6.714844-15 15c0 8.269531-6.730469 15-15 15h-15v-66.972656l6.679688 4.453125c6.863281 4.574219 16.183593 2.761719 20.800781-4.160157 4.59375-6.894531 2.730469-16.207031-4.160157-20.800781-8.285156-5.523437-81.714843-54.476562-90-60-5.039062-3.359375-11.605468-3.359375-16.640624 0-8.289063 5.523438-81.714844 54.476563-90 60-6.894532 4.59375-8.757813 13.90625-4.160157 20.800781 4.59375 6.890626 13.910157 8.753907 20.800781 4.160157l6.679688-4.453125v66.972656h-15c-8.273438 0-15-6.730469-15-15 0-8.285156-6.71875-15-15-15-8.285156 0-15 6.714844-15 15 0 8.269531-6.730469 15-15 15h-13.457031zm45 197.890625v86.972656h-15c-8.269531 0-15-6.730469-15-15 0-8.285156-6.714844-15-15-15s-15 6.714844-15 15c0 8.269531-6.730469 15-15 15h-15v-86.972656l45-30zm-260.097656 176.972656 34.425781-60h30.671875c11.515625 0 22.03125-4.347656 30-11.488281 7.964844 7.140625 18.484375 11.488281 30 11.488281h60c11.515625 0 22.03125-4.355469 30-11.496094 7.96875 7.144532 18.484375 11.496094 30 11.496094h60c11.515625 0 22.03125-4.347656 30-11.488281 7.964844 7.140625 18.484375 11.488281 30 11.488281h30.667969l34.429687 60zm0 0"/></svg>